<?xml version="1.0" encoding="UTF-8"?>
<svg xmlns="http://www.w3.org/2000/svg" xmlns:xlink="http://www.w3.org/1999/xlink" width="117px" height="48px" viewBox="0 0 117 48" version="1.1">
<g id="surface1">
<path d="M 52.898438 15.882812 C 54.601562 16.773438 55.164062 17.597656 55.773438 19.367188 L 56.527344 18.753906 L 57.53125 17.949219 L 58.519531 17.148438 C 60.855469 15.5 63.046875 15.234375 65.839844 15.578125 C 67.625 16.148438 68.808594 17.132812 69.769531 18.738281 C 70.835938 21.039062 70.929688 22.949219 70.910156 25.46875 L 70.910156 26.507812 C 70.90625 27.601562 70.902344 28.695312 70.898438 29.789062 C 70.894531 30.53125 70.894531 31.273438 70.890625 32.019531 C 70.886719 33.835938 70.878906 35.65625 70.871094 37.472656 C 69.71875 37.859375 69.042969 37.941406 67.855469 37.921875 L 66.257812 37.894531 L 66.234375 36.621094 C 66.199219 35.050781 66.164062 33.484375 66.125 31.917969 C 66.109375 31.238281 66.09375 30.5625 66.082031 29.886719 C 66.0625 28.910156 66.039062 27.933594 66.011719 26.957031 L 65.996094 26.046875 C 65.945312 24.242188 65.710938 22.71875 65 21.050781 C 63.730469 20.214844 62.957031 20.207031 61.433594 20.261719 C 59.835938 20.664062 59.046875 21.171875 57.871094 22.316406 C 57.230469 23.601562 57.351562 24.957031 57.320312 26.371094 L 57.292969 27.332031 C 57.265625 28.34375 57.242188 29.355469 57.214844 30.367188 L 57.160156 32.425781 C 57.117188 34.109375 57.074219 35.792969 57.03125 37.472656 C 55.464844 37.84375 54.027344 37.933594 52.417969 37.894531 L 52.394531 36.671875 C 52.363281 35.164062 52.324219 33.652344 52.285156 32.144531 C 52.269531 31.492188 52.253906 30.839844 52.242188 30.191406 C 52.222656 29.25 52.199219 28.308594 52.171875 27.367188 L 52.160156 26.5 C 52.097656 24.425781 51.710938 22.617188 51.160156 20.632812 C 49.273438 20.28125 47.820312 20.066406 45.972656 20.683594 C 44.714844 21.585938 44.277344 22.183594 43.613281 23.578125 C 43.480469 24.65625 43.410156 25.738281 43.398438 26.824219 L 43.375 27.75 C 43.355469 28.71875 43.335938 29.6875 43.324219 30.65625 C 43.3125 31.316406 43.296875 31.976562 43.28125 32.636719 C 43.246094 34.25 43.21875 35.863281 43.195312 37.472656 C 41.726562 37.964844 40.535156 37.953125 39 37.894531 C 38.582031 37.472656 38.582031 37.472656 38.53125 36.609375 L 38.53125 34.152344 L 38.539062 32.734375 L 38.542969 31.292969 C 38.542969 29.765625 38.550781 28.238281 38.554688 26.710938 C 38.558594 23.140625 38.566406 19.570312 38.582031 16 L 43.195312 16 L 43.613281 18.105469 L 44.210938 17.660156 L 45 17.078125 L 45.785156 16.5 C 47.816406 15.167969 50.628906 15.117188 52.898438 15.882812 Z M 52.898438 15.882812 "/>
<path d="M 26.671875 16.054688 C 27.476562 16.554688 28.214844 17.070312 28.933594 17.683594 L 29.355469 16 L 33.96875 16 C 33.976562 19.050781 33.984375 22.101562 33.992188 25.152344 C 33.992188 26.191406 33.996094 27.230469 34 28.265625 C 34.003906 29.757812 34.007812 31.246094 34.007812 32.734375 L 34.015625 34.152344 L 34.015625 35.453125 L 34.019531 36.609375 C 33.96875 37.472656 33.96875 37.472656 33.546875 37.894531 C 32.839844 37.921875 32.132812 37.933594 31.425781 37.921875 L 30.257812 37.910156 L 29.355469 37.894531 L 28.933594 35.367188 L 27.992188 36.15625 C 25.257812 38.28125 22.6875 38.261719 19.289062 37.894531 C 17.933594 37.414062 16.988281 36.761719 15.933594 35.789062 L 15.21875 35.140625 C 12.902344 32.75 12.136719 29.800781 11.976562 26.527344 C 12.09375 23.144531 13.476562 19.992188 15.933594 17.683594 C 19.070312 15.460938 23.019531 14.460938 26.671875 16.054688 Z M 18.320312 22.105469 C 16.863281 24.273438 16.996094 26.527344 17.195312 29.050781 C 17.972656 31.316406 19.257812 32.613281 21.386719 33.683594 C 23.3125 33.921875 24.785156 33.863281 26.550781 33.027344 C 28.644531 31.121094 29.449219 29.5625 29.589844 26.761719 C 29.496094 24.414062 28.855469 22.773438 27.257812 21.050781 C 24.167969 18.894531 20.851562 19.359375 18.320312 22.105469 Z M 18.320312 22.105469 "/>
<path d="M 88.484375 10.527344 L 93.097656 10.527344 L 93.097656 16 L 98.128906 16 L 98.128906 20.210938 C 96.871094 20.632812 96.871094 20.632812 93.097656 20.210938 L 93.097656 37.472656 L 88.902344 37.894531 C 88.011719 36.996094 88.375 34.992188 88.351562 33.75 L 88.324219 32.617188 C 88.296875 31.421875 88.273438 30.222656 88.246094 29.027344 L 88.191406 26.597656 C 88.148438 24.609375 88.105469 22.621094 88.066406 20.632812 L 87.253906 20.644531 L 86.203125 20.65625 L 85.15625 20.671875 C 84.289062 20.632812 84.289062 20.632812 83.871094 20.210938 C 83.84375 19.5 83.832031 18.789062 83.84375 18.078125 L 83.855469 16.90625 L 83.871094 16 C 85.324219 15.269531 86.90625 15.796875 88.484375 16 Z M 88.484375 10.527344 "/>
<path d="M 29.773438 16.421875 L 33.546875 16.421875 L 33.546875 37.894531 L 29.355469 37.894531 L 28.933594 35.367188 L 27.257812 35.367188 L 26.839844 36.210938 L 26 34.105469 L 26.761719 33.472656 C 28.863281 31.058594 29.074219 28.5625 29.0625 25.480469 C 28.929688 24.375 28.613281 23.707031 28.097656 22.738281 C 27.957031 21.011719 27.960938 20.414062 28.933594 18.949219 L 29.773438 18.949219 Z M 29.773438 16.421875 "/>
<path d="M 76.324219 15.15625 L 80.515625 16 L 80.515625 37.472656 C 79.050781 37.964844 77.859375 37.953125 76.324219 37.894531 C 75.628906 37.199219 75.851562 36.378906 75.847656 35.421875 L 75.84375 34.097656 L 75.847656 32.65625 L 75.847656 31.191406 C 75.847656 30.164062 75.847656 29.136719 75.847656 28.109375 C 75.851562 26.53125 75.847656 24.957031 75.847656 23.378906 C 75.847656 22.382812 75.847656 21.390625 75.847656 20.394531 L 75.84375 18.953125 L 75.847656 17.628906 L 75.851562 16.457031 C 75.902344 15.578125 75.902344 15.578125 76.324219 15.15625 Z M 76.324219 15.15625 "/>
<path d="M 39 16.421875 L 42.773438 16.421875 L 42.773438 19.367188 L 43.613281 19.367188 C 44.453125 20.632812 44.453125 20.632812 44.320312 21.472656 L 44.03125 22.316406 C 43.539062 23.804688 43.515625 25.1875 43.480469 26.742188 L 43.453125 27.671875 C 43.425781 28.648438 43.402344 29.625 43.378906 30.605469 L 43.324219 32.597656 C 43.277344 34.222656 43.234375 35.847656 43.195312 37.472656 C 41.933594 37.894531 41.933594 37.894531 39 37.894531 Z M 39 16.421875 "/>
<path d="M 26.675781 16.054688 C 27.480469 16.554688 28.214844 17.070312 28.933594 17.683594 L 29.355469 16 L 33.96875 16 L 33.96875 37.472656 L 33.546875 37.472656 L 33.546875 16.421875 L 29.773438 16.421875 L 29.851562 17.605469 C 29.773438 18.949219 29.773438 18.949219 29.171875 19.632812 L 28.515625 20.210938 C 28.257812 21.070312 28.257812 21.070312 28.097656 21.894531 L 27.464844 21.527344 C 25.5 20.449219 24.097656 19.949219 21.804688 20.210938 C 21.101562 20.480469 20.402344 20.761719 19.710938 21.050781 C 18.53125 21.105469 18.53125 21.105469 17.613281 21.050781 L 18.03125 19.367188 L 17.195312 18.949219 L 17.613281 17.683594 L 16.773438 17.261719 C 19.785156 15.367188 23.285156 14.582031 26.675781 16.054688 Z M 26.675781 16.054688 "/>
<path d="M 104 31.578125 C 105.21875 32.671875 105.628906 33.34375 105.859375 34.972656 C 105.65625 36.359375 105.4375 36.941406 104.417969 37.894531 C 103.128906 38.371094 102.492188 38.367188 101.167969 37.972656 C 100.226562 37.472656 100.226562 37.472656 99.804688 36.632812 C 99.566406 33.636719 99.566406 33.636719 100.488281 32.210938 C 101.796875 31.382812 102.480469 31.292969 104 31.578125 Z M 104 31.578125 "/>
<path d="M 78.628906 5.949219 C 80.097656 6.316406 80.097656 6.316406 80.933594 7.027344 C 81.503906 8.34375 81.292969 9.160156 80.933594 10.527344 L 80.515625 11.367188 C 77.582031 11.996094 77.582031 11.996094 76.140625 11.289062 C 75.390625 10.417969 75.132812 9.992188 75.066406 8.84375 C 75.660156 6.746094 76.335938 5.867188 78.628906 5.949219 Z M 78.628906 5.949219 "/>
<path d="M 76.324219 15.15625 L 80.515625 16 L 80.515625 37.472656 L 80.097656 37.472656 L 80.097656 16.421875 L 76.324219 16.421875 L 76.324219 37.472656 L 75.902344 37.472656 C 75.894531 34.363281 75.886719 31.253906 75.878906 28.140625 C 75.878906 27.082031 75.875 26.023438 75.871094 24.964844 C 75.867188 23.445312 75.863281 21.929688 75.863281 20.410156 L 75.855469 18.964844 L 75.855469 17.636719 L 75.851562 16.460938 C 75.902344 15.578125 75.902344 15.578125 76.324219 15.15625 Z M 76.324219 15.15625 "/>
<path d="M 61.644531 16 C 61.019531 17.257812 59.9375 17.488281 58.710938 18.105469 L 58.289062 18.949219 L 59.546875 19.367188 L 59.96875 20.632812 L 57.453125 22.316406 L 57.320312 21.316406 C 57.125 20.070312 57.125 20.070312 55.773438 19.367188 C 56.386719 18.886719 56.996094 18.402344 57.609375 17.921875 L 58.640625 17.105469 C 59.800781 16.230469 60.175781 16 61.644531 16 Z M 61.644531 16 "/>
<path d="M 52 15.578125 L 52 16 L 51.234375 16.046875 C 49.242188 16.210938 48.109375 16.378906 46.546875 17.683594 C 45.578125 17.996094 44.601562 18.277344 43.613281 18.527344 C 46.277344 15.621094 48.222656 15.445312 52 15.578125 Z M 52 15.578125 "/>
<path d="M 27.257812 32.84375 C 28.097656 33.683594 28.097656 33.683594 28.097656 34.527344 L 27.257812 34.527344 L 26.839844 36.210938 L 26 34.105469 Z M 27.257812 32.84375 "/>
<path d="M 61.644531 16 C 61.011719 17.273438 59.96875 17.511719 58.710938 18.105469 L 57.714844 18.605469 L 57.03125 18.949219 C 58.394531 17.09375 59.28125 16 61.644531 16 Z M 61.644531 16 "/>
<path d="M 80.933594 8 C 81.324219 9.097656 81.417969 9.535156 80.960938 10.632812 L 80.515625 11.367188 L 79.675781 10.949219 C 79.414062 9.867188 79.414062 9.867188 79.257812 8.84375 L 80.097656 8.421875 L 80.933594 8.84375 Z M 80.933594 8 "/>
</g>
</svg>
